
<?xml version="1.0" encoding="UTF-8" standalone="no"?>
<!-- Created with Inkscape (http://www.inkscape.org/) -->

<svg
   xmlns:dc="http://purl.org/dc/elements/1.1/"
   xmlns:cc="http://creativecommons.org/ns#"
   xmlns:rdf="http://www.w3.org/1999/02/22-rdf-syntax-ns#"
   xmlns:svg="http://www.w3.org/2000/svg"
   xmlns="http://www.w3.org/2000/svg"
   xmlns:sodipodi="http://sodipodi.sourceforge.net/DTD/sodipodi-0.dtd"
   xmlns:inkscape="http://www.inkscape.org/namespaces/inkscape"
   width="450"
   height="440"
   viewBox="0 0 119.0625 116.41667"
   version="1.1"
   id="svg3735"
   inkscape:version="0.92.4 (5da689c313, 2019-01-14)"
   sodipodi:docname="museum1_444_432.svg">
  <defs
     id="defs3729" />
  <sodipodi:namedview
     id="base"
     pagecolor="#ffffff"
     bordercolor="#666666"
     borderopacity="1.0"
     inkscape:pageopacity="0.0"
     inkscape:pageshadow="2"
     inkscape:zoom="1.1443359"
     inkscape:cx="308.40127"
     inkscape:cy="255.30645"
     inkscape:document-units="mm"
     inkscape:current-layer="layer1"
     showgrid="false"
     units="px"
     inkscape:window-width="1920"
     inkscape:window-height="1001"
     inkscape:window-x="-9"
     inkscape:window-y="-9"
     inkscape:window-maximized="1" />
  <metadata
     id="metadata3732">
    <rdf:RDF>
      <cc:Work
         rdf:about="">
        <dc:format>image/svg+xml</dc:format>
        <dc:type
           rdf:resource="http://purl.org/dc/dcmitype/StillImage" />
        <dc:title></dc:title>
      </cc:Work>
    </rdf:RDF>
  </metadata>
  <g
     inkscape:label="svg"
     inkscape:groupmode="layer"
     id="layer1"
     transform="translate(0,-180.58332)"
     style="display:inline;opacity:0.419">
    <path
       name="中国历代钱币馆"
       style="fill:#ffffff;stroke:#000000;stroke-width:0.26458332px;stroke-linecap:butt;stroke-linejoin:miter;stroke-opacity:1"
       d="m 6.5606188,213.85064 1.4739718,-2.80343 2.4277184,-3.81499 2.739592,-3.66736 2.983711,-3.31069 3.024585,-2.82023 3.024584,-2.77934 3.26982,-2.45237 3.433312,-2.12538 2.656729,-1.26706 2.370621,-0.94007 0.03724,73.42258 -25.014166,-0.0145 0.075197,-47.46414 z"
       id="path3780"
       inkscape:connector-curvature="0" />
    <path
       name="中国少数民族工艺馆"
       style="fill:none;stroke:#000000;stroke-width:0.26458332px;stroke-linecap:butt;stroke-linejoin:miter;stroke-opacity:1"
       d="m 36.82039,189.63127 0.006,24.11091 75.90072,0.12261 -1.63491,-3.47418 -1.55317,-2.6976 -1.96795,-3.00411 -3.41037,-4.0462 -3.93059,-3.69938 -4.797633,-3.98839 -4.739831,-3.29476 -4.855437,-2.65893 v 2.83234 z"
       id="path3782"
       inkscape:connector-curvature="0" />
    <path
       name="中国古代玉器馆"
       style="fill:#ffffff;stroke:#000000;stroke-width:0.26458332px;stroke-linecap:butt;stroke-linejoin:miter;stroke-opacity:1"
       d="m 84.970129,216.42287 -0.115604,44.97058 26.473685,-0.23121 -1.13525,-44.68159 z"
       id="path3784"
       inkscape:connector-curvature="0" />
    <path
       name="中国明清家具馆"
       style="fill:none;stroke:#000000;stroke-width:0.26458332px;stroke-linecap:butt;stroke-linejoin:miter;stroke-opacity:1"
       d="m 6.7031324,264.30178 3.0077397,5.53088 2.0809009,3.12136 2.774535,3.29476 2.89014,2.83233 2.716733,2.54333 3.819128,2.95023 3.228947,1.96189 3.351567,1.83927 3.351567,1.75753 0.04087,-2.248 48.7612,0.0409 -0.126249,-17.86235 -6.473915,-0.11561 v -5.60687 z"
       id="path3786"
       inkscape:connector-curvature="0" />
    <path
       name="第三展览厅"
       style="fill:#ffffff;stroke:#000000;stroke-width:0.26458332px;stroke-linecap:butt;stroke-linejoin:miter;stroke-opacity:1"
       d="m 78.207202,263.58996 v 4.56642 l 6.031553,0.0283 v 23.26623 l 2.69667,-1.32947 2.947945,-1.50287 3.224774,-1.79591 3.422549,-2.65491 2.658928,-2.1965 3.646239,-3.36402 2.8611,-3.35156 2.32974,-2.8611 1.55317,-2.20713 1.25702,-1.79986 0.89594,-1.41616 0.83814,-1.50288 1.13704,-1.90248 z"
       id="path3788"
       inkscape:connector-curvature="0" />
    <path
       style="fill:#ffffff;stroke:#000000;stroke-width:0.26458332px;stroke-linecap:butt;stroke-linejoin:miter;stroke-opacity:1"
       d="m 36.090645,216.19454 -0.04087,6.94837 8.705898,-0.12262 v -6.80531 z"
       id="path3790"
       inkscape:connector-curvature="0" />
    <path
       style="fill:none;stroke:#000000;stroke-width:0.26458332px;stroke-linecap:butt;stroke-linejoin:miter;stroke-opacity:1"
       d="m 74.306675,216.19454 8.74677,-0.0409 -0.04087,6.82575 -8.624152,-0.0409 z"
       id="path3792"
       inkscape:connector-curvature="0" />
    <path
       style="fill:none;stroke:#000000;stroke-width:0.26458332px;stroke-linecap:butt;stroke-linejoin:miter;stroke-opacity:1"
       d="m 44.14258,229.3147 h 6.662259 l 0.163491,25.79071 -6.82575,-0.12262 z"
       id="path3794"
       inkscape:connector-curvature="0" />
    <path
       style="fill:none;stroke:#000000;stroke-width:0.26458332px;stroke-linecap:butt;stroke-linejoin:miter;stroke-opacity:1"
       d="m 71.486455,229.35557 6.539643,-0.0409 0.163488,25.83158 -6.82575,-0.12262 z"
       id="path3796"
       inkscape:connector-curvature="0" />
  </g>
</svg>
